<?xml version="1.0" encoding="UTF-8"?>
<svg version="1.1" xmlns:xlink="http://www.w3.org/1999/xlink" viewBox="0 0 136 145.9" xmlns="http://www.w3.org/2000/svg">
  <defs>
    <style type="text/css">
      .fl-logo__f--line,
      .fl-logo__l--line,
      .fl-logo__f--dot,
      .fl-logo__l--dot {
        fill: #d23523;
      }
    </style>
  </defs>
  <g class="fl-logo__fl">
    <g class="fl-logo__f">
      <path class="fl-logo__f--line" d="M65 0H33.1C1.5 0 1.2 32.1 1.2 32.5v32.4h16.5V37.2c0-17 8.6-20.4 14.7-20.4h32.7V0z"/>
      <circle class="fl-logo__f--dot" cx="33.1" cy="32.3" r="16"/>
    </g>
    <g class="fl-logo__l">
      <path class="fl-logo__l--line" d="M71.1.5v31.9c0 31.6 32.1 31.9 32.5 31.9H136V47.8h-27.7c-17 0-20.4-8.6-20.4-14.7V.4H71.1z"/>
      <circle class="fl-logo__l--dot" cx="103.4" cy="32.3" r="16"/>
    </g>
  </g>
  <g class="fl-logo__name">
    <g class="fl-logo__name--top">
      <path class="fl-logo__name--f" d="M0 107.1h1.9v-4.5h5.6v-1.8H1.9v-3h6.3V96H0v11.1z"/>
      <path class="fl-logo__name--r" d="M38.2 99.6c0-2.2-1.6-3.5-4.1-3.5h-4.9v11h1.9v-3.8h2.4l2.7 3.8h2.3l-3-4.2c1.6-.3 2.7-1.4 2.7-3.3zm-7.1 2v-3.7h2.8c1.4 0 2.3.6 2.3 1.8 0 1.1-.9 1.9-2.3 1.9h-2.8z"/>
      <path class="fl-logo__name--a" d="M63.8 96.1L59 107.2h2l1.1-2.7h5.2l1.1 2.7h2l-4.8-11.1h-1.8zm-1 6.7l1.9-4.4 1.9 4.4h-3.8z"/>
      <path class="fl-logo__name--m" d="M96.8 101.3l-3.4-5.2h-2.1v11h1.9v-7.9l3.4 5.2h.1l3.5-5.2v7.9h1.9v-11h-2l-3.3 5.2z"/>
      <path class="fl-logo__name--e" d="M126.1 105.4v-3h5.5v-1.7h-5.5v-2.9h6.2v-1.7h-8.2v11h8.2v-1.7h-6.2z"/>
    </g>
    <g class="fl-logo__name--bottom">
      <path class="fl-logo__name--l" d="M2 134.6H.1v11h7.7v-1.8H2v-9.2z"/>
      <path class="fl-logo__name--u" d="M35.8 140.9c0 2-1.1 3.1-2.8 3.1-1.7 0-2.8-1.1-2.8-3.1v-6.3h-1.9v6.3c0 3.2 1.8 4.8 4.7 4.8 2.9 0 4.7-1.6 4.7-4.9v-6.2h-1.9v6.3z"/>
      <path class="fl-logo__name--n" d="M67.3 142.2l-5.9-7.6h-1.8v11h1.9v-7.8l6.1 7.8h1.6v-11h-1.9v7.6z"/>
      <path class="fl-logo__name--c" d="M96.3 144c-2.1 0-3.6-1.8-3.6-3.9 0-2.2 1.5-3.9 3.6-3.9 1.3 0 2.2.5 3.1 1.4l1.2-1.4c-1.1-1-2.3-1.7-4.3-1.7-3.3 0-5.7 2.6-5.7 5.7 0 3.2 2.4 5.7 5.6 5.7 2.1 0 3.3-.8 4.5-1.9l-1.2-1.3c-1 .7-1.8 1.3-3.2 1.3z"/>
      <path class="fl-logo__name--h" d="M128.9 139.1h-5.3v-4.6h-1.9v11h1.9v-4.6h5.3v4.6h1.9v-11h-1.9v4.6z"/>
    </g>
  </g>
</svg>